<?xml version="1.0" encoding="iso-8859-1"?>
<!-- Generator: Adobe Illustrator 19.0.0, SVG Export Plug-In . SVG Version: 6.00 Build 0)  -->
<svg version="1.1" id="Capa_1" xmlns="http://www.w3.org/2000/svg" xmlns:xlink="http://www.w3.org/1999/xlink" x="0px" y="0px"
	 viewBox="0 0 512.001 512.001" style="enable-background:new 0 0 512.001 512.001;" xml:space="preserve">
<g>
	<g>
		<path d="M406.728,166.733h-2.19v-12.898c0-4.142-3.357-7.5-7.5-7.5s-7.5,3.358-7.5,7.5v15.398
			c-0.001,6.893,5.537,12.5,12.345,12.5h4.845c4.143,0,7.5-3.358,7.5-7.5C414.228,170.091,410.871,166.733,406.728,166.733z"/>
	</g>
</g>
<g>
	<g>
		<path d="M360.607,145.635c-4.143,0-7.5,3.358-7.5,7.5v10.013c0,4.142,3.357,7.5,7.5,7.5s7.5-3.358,7.5-7.5v-10.013
			C368.107,148.993,364.75,145.635,360.607,145.635z"/>
	</g>
</g>
<g>
	<g>
		<path d="M438.729,145.635c-4.143,0-7.5,3.358-7.5,7.5v10.013c0,4.142,3.357,7.5,7.5,7.5s7.5-3.358,7.5-7.5v-10.013
			C446.229,148.993,442.872,145.635,438.729,145.635z"/>
	</g>
</g>
<g>
	<g>
		<path d="M420.913,186.344c-4.143,0-7.5,3.358-7.5,7.5c0,6.868-5.565,12.455-12.407,12.455c-6.84,0-12.405-5.587-12.405-12.455
			c0-4.142-3.357-7.5-7.5-7.5s-7.5,3.358-7.5,7.5c0,15.139,12.294,27.455,27.405,27.455c15.112,0,27.407-12.316,27.407-27.455
			C428.413,189.702,425.056,186.344,420.913,186.344z"/>
	</g>
</g>
<g>
	<g>
		<path d="M457.595,220.143h-0.904c11.532-10.169,20.699-23.336,26.327-38.25h0.145c15.901,0,28.838-12.958,28.838-28.886
			c0-13.843-9.773-25.438-22.77-28.238v-5.203c0-48.07-37.929-84.319-88.225-84.319c-46.479,0-82.362,30.967-87.545,73.6
			c-7.825-7.288-16.694-13.192-26.313-17.382c3.673-6.64,5.793-14.426,5.793-22.751c0-6.398-5.2-11.604-11.592-11.604h-56.674
			c-6.393,0-11.593,5.205-11.593,11.604c0,8.325,2.121,16.112,5.794,22.751c-7.512,3.272-14.566,7.589-21.023,12.795
			c-7.115-40.249-42.065-69.014-86.859-69.014c-50.298,0-88.227,36.249-88.227,84.319v5.202C9.773,127.567,0,139.163,0,153.008
			c0,15.928,12.934,28.886,28.83,28.886h0.15c5.628,14.914,14.795,28.081,26.328,38.25h-0.903c-28.53,0-51.742,23.261-51.742,51.852
			v105.205c0,6.978,5.672,12.656,12.644,12.656H50c4.143,0,7.5-3.358,7.5-7.5c0-4.142-3.357-7.5-7.5-7.5H17.663V271.995
			c0-20.32,16.482-36.852,36.742-36.852h18.858l26.519,52.278c2.51,4.949,6.597,7.787,11.213,7.787
			c4.616,0,8.703-2.838,11.212-7.786l20.666-40.744c3.121,12.571,14.479,21.916,27.977,21.916H171
			c5.664,15.011,14.917,28.25,26.555,38.446h-1.13c-28.53,0-51.742,23.261-51.742,51.852v2.686
			c-5.527,1.157-10.608,3.88-14.696,7.958c-1.63,1.626-3.038,3.414-4.224,5.321H90c-4.143,0-7.5,3.358-7.5,7.5
			c0,4.142,3.357,7.5,7.5,7.5h31.386c-0.002,0.148-0.011,0.294-0.011,0.442c0,7.851,3.059,15.225,8.611,20.766l14.696,14.66v38.373
			c0,6.979,5.672,12.657,12.645,12.657h191.372c6.972,0,12.644-5.678,12.644-12.657v-74.241H443c4.143,0,7.5-3.358,7.5-7.5
			c0-4.142-3.357-7.5-7.5-7.5h-81.657v-15.965c0-28.591-23.211-51.852-51.741-51.852h-1.131
			c11.638-10.196,20.891-23.435,26.555-38.446h0.144c15.901,0,28.838-12.958,28.838-28.886c0-1.212-0.084-2.404-0.229-3.577
			l26.017,51.289c2.51,4.949,6.597,7.787,11.213,7.787s8.703-2.838,11.212-7.786l26.517-52.278h18.858
			c20.259,0,36.741,16.532,36.741,36.852v102.862H482c-4.143,0-7.5,3.358-7.5,7.5c0,4.142,3.357,7.5,7.5,7.5h14.692
			c6.972,0,12.643-5.678,12.643-12.656V271.995C509.336,243.404,486.125,220.143,457.595,220.143z M489.23,147.889v-7.342
			c4.593,2.262,7.77,6.991,7.77,12.461c0,6.148-4.006,11.367-9.533,13.189C488.62,160.255,489.23,154.132,489.23,147.889z
			 M15,153.008c0-5.472,3.176-10.201,7.768-12.462v7.343c0,6.244,0.61,12.368,1.764,18.31C19.006,164.378,15,159.157,15,153.008z
			 M438.782,73.39V59.585c21.555,11.79,35.448,33.736,35.448,59.981v1.925c-17.197-1.476-31.839-12.055-39.105-26.9
			C437.486,87.959,438.782,80.824,438.782,73.39z M327.78,119.566c0-39.518,31.48-69.319,73.226-69.319
			c8.043,0,15.698,1.117,22.827,3.185c-0.018,0.215-0.051,0.427-0.051,0.646v19.311c0,26.625-21.6,48.286-48.148,48.286H327.78
			V119.566z M277.771,72.111c-0.55,5.432-2.404,10.405-5.185,14.491c-6.319-1.498-12.865-2.293-19.572-2.293
			c-6.708,0-13.254,0.795-19.574,2.294c-2.782-4.087-4.636-9.06-5.186-14.492H277.771z M110.995,276.367l-18.626-36.718
			c6.025,1.442,12.259,2.212,18.625,2.212c6.366,0,12.6-0.769,18.625-2.212L110.995,276.367z M146.375,193.54v6.352
			c0,5.137,1.734,9.875,4.644,13.667c-11.59,8.363-25.381,13.303-40.023,13.303c-39.695-0.001-73.228-36.166-73.228-78.973v-28.322
			c0-39.518,31.48-69.319,73.227-69.319c41.07,0,72.182,28.852,73.178,67.418c-12.701,15.038-21.594,34.214-24.908,55.535
			C151.654,176.812,146.375,184.57,146.375,193.54z M157.02,239.709c0-5.472,3.176-10.201,7.768-12.462v7.343
			c0,6.244,0.61,12.368,1.764,18.31C161.025,251.079,157.02,245.858,157.02,239.709z M140.58,400.445
			c-2.712-2.705-4.205-6.308-4.205-10.146c0-3.836,1.493-7.439,4.205-10.144c2.723-2.716,6.344-4.211,10.197-4.211
			c3.854,0,7.475,1.496,10.197,4.212l6.539,6.521c2.928,2.919,7.665,2.92,10.591,0.001l6.546-6.525
			c2.719-2.714,6.338-4.209,10.191-4.209c3.853,0,7.476,1.496,10.198,4.212c2.717,2.709,4.213,6.311,4.213,10.143
			c0,3.832-1.497,7.435-4.196,10.126l-32.367,32.049L140.58,400.445z M309.602,322.043c20.258-0.003,36.741,16.529,36.741,36.849
			v102.863h-186.66v-21.068l4.59,4.579c2.25,2.239,5.237,3.473,8.411,3.473c3.167,0,6.148-1.228,8.383-3.448l34.563-34.224
			c5.561-5.546,8.623-12.921,8.623-20.766c0-7.845-3.061-15.22-8.62-20.763c-5.554-5.541-12.938-8.592-20.791-8.592
			c-7.855,0-15.238,3.052-20.785,8.59l-1.246,1.242l-1.243-1.24c-3.384-3.376-7.45-5.822-11.885-7.222v-3.422
			c0-20.32,16.482-36.852,36.742-36.852h18.958l26.419,52.083c2.51,4.948,6.597,7.786,11.212,7.786
			c4.615,0,8.702-2.838,11.212-7.786l26.417-52.082H309.602z M234.388,326.349c6.026,1.443,12.258,2.212,18.626,2.212
			c6.366,0,12.6-0.77,18.625-2.212l-18.625,36.719L234.388,326.349z M326.238,234.589c0,42.808-33.533,78.972-73.224,78.972
			c-39.693,0-73.227-36.165-73.227-78.972v-12.198h146.451V234.589z M168.874,207.392c-4.136,0-7.5-3.365-7.5-7.5v-6.352
			c0-4.135,3.364-7.5,7.5-7.5H198c4.143,0,7.5-3.358,7.5-7.5c0-4.142-3.357-7.5-7.5-7.5h-23.098
			c8.208-41.034,40.099-71.731,78.112-71.731c38.011,0,69.9,30.697,78.108,71.731H237c-4.143,0-7.5,3.358-7.5,7.5
			c0,4.142,3.357,7.5,7.5,7.5h100.151c4.136,0,7.5,3.365,7.5,7.5v6.352c0,4.135-3.364,7.5-7.5,7.5H168.874z M339.475,252.897
			c1.153-5.941,1.764-12.064,1.764-18.308v-7.342c4.592,2.262,7.768,6.99,7.768,12.461
			C349.007,245.856,345.001,251.075,339.475,252.897z M401.007,276.367l-18.626-36.719c6.025,1.443,12.258,2.212,18.625,2.212
			s12.6-0.77,18.626-2.212L401.007,276.367z M401.006,226.861c-16.36,0-31.655-6.167-44.004-16.391
			c1.688-3.155,2.649-6.756,2.649-10.579v-6.352c0-8.971-5.278-16.729-12.891-20.34c-2.044-13.146-6.21-25.476-12.08-36.524h40.953
			c21.154,0,39.898-10.489,51.363-26.539c10.71,14.998,27.783,25.134,47.233,26.402v11.351
			C474.23,190.696,440.697,226.861,401.006,226.861z"/>
	</g>
</g>
<g>
	<g>
		<path d="M478.123,296.366h-9.837v-9.868c0-5.701-4.635-10.339-10.332-10.339h-14.671c-5.698,0-10.335,4.638-10.335,10.339v9.868
			h-9.835c-5.697,0-10.333,4.637-10.333,10.337V321.4c0,5.701,4.636,10.339,10.333,10.339h9.835v9.866
			c0,5.701,4.637,10.339,10.335,10.339h14.671c5.697,0,10.332-4.638,10.332-10.339v-9.866h9.837
			c5.698,0.001,10.334-4.637,10.334-10.339v-14.697C488.457,301.003,483.821,296.366,478.123,296.366z M473.457,316.74h-12.671
			c-4.143,0-7.5,3.358-7.5,7.5v12.705h-5.338V324.24c0-4.142-3.357-7.5-7.5-7.5H427.78v-5.374h12.668c4.143,0,7.5-3.358,7.5-7.5
			v-12.707h5.338v12.707c0,4.142,3.357,7.5,7.5,7.5h12.671V316.74z"/>
	</g>
</g>
<g>
	<g>
		<path d="M116.716,152.935h-2.191v-12.898c0-4.142-3.357-7.5-7.5-7.5s-7.5,3.358-7.5,7.5v15.398
			c-0.001,6.893,5.538,12.5,12.345,12.5h4.846c4.143,0,7.5-3.358,7.5-7.5C124.216,156.293,120.859,152.935,116.716,152.935z"/>
	</g>
</g>
<g>
	<g>
		<path d="M70.596,131.838c-4.143,0-7.5,3.358-7.5,7.5v10.012c0,4.142,3.357,7.5,7.5,7.5s7.5-3.358,7.5-7.5v-10.012
			C78.096,135.196,74.739,131.838,70.596,131.838z"/>
	</g>
</g>
<g>
	<g>
		<path d="M148.717,131.838c-4.143,0-7.5,3.358-7.5,7.5v10.012c0,4.142,3.357,7.5,7.5,7.5c4.143,0,7.5-3.358,7.5-7.5v-10.012
			C156.217,135.196,152.86,131.838,148.717,131.838z"/>
	</g>
</g>
<g>
	<g>
		<path d="M130.9,172.545c-4.143,0-7.5,3.358-7.5,7.5c0,6.868-5.565,12.456-12.406,12.456s-12.406-5.587-12.406-12.456
			c0-4.142-3.357-7.5-7.5-7.5s-7.5,3.358-7.5,7.5c0,15.14,12.294,27.456,27.406,27.456s27.406-12.316,27.406-27.456
			C138.4,175.903,135.043,172.545,130.9,172.545z"/>
	</g>
</g>
<g>
	<g>
		<path d="M91.348,298.512h-9.837v-9.869c0-5.701-4.635-10.339-10.332-10.339H56.508c-5.699,0-10.336,4.638-10.336,10.339v9.869
			h-9.834c-5.697,0-10.333,4.637-10.333,10.337v14.697c0,5.701,4.636,10.339,10.333,10.339h9.834v9.866
			c0,5.701,4.637,10.339,10.336,10.339h14.671c5.697,0,10.332-4.638,10.332-10.339v-9.866h9.837c5.697,0,10.333-4.638,10.333-10.339
			v-14.697C101.681,303.149,97.045,298.512,91.348,298.512z M86.681,318.885h-12.67c-4.142,0-7.5,3.358-7.5,7.5v12.705h-5.339
			v-12.705c0-4.142-3.357-7.5-7.5-7.5H41.005v-5.373h12.667c4.143,0,7.5-3.358,7.5-7.5v-12.707h5.339v12.707
			c0,4.142,3.358,7.5,7.5,7.5h12.67V318.885z"/>
	</g>
</g>
<g>
	<g>
		<path d="M231.358,232.345c-2.934-2.926-7.683-2.919-10.606,0.013c-2.439,2.445-5.676,3.792-9.115,3.792
			c-3.439,0-6.675-1.347-9.112-3.791c-2.926-2.933-7.675-2.939-10.606-0.014c-2.934,2.925-2.939,7.674-0.015,10.606
			c5.272,5.287,12.281,8.198,19.733,8.198h0.001c7.452,0,14.461-2.912,19.733-8.198C234.297,240.019,234.291,235.27,231.358,232.345
			z"/>
	</g>
</g>
<g>
	<g>
		<path d="M309.095,232.345c-2.932-2.925-7.681-2.921-10.606,0.012c-2.439,2.445-5.677,3.792-9.115,3.792h-0.001
			c-3.438-0.001-6.675-1.347-9.113-3.792c-2.924-2.932-7.673-2.938-10.607-0.013c-2.933,2.925-2.938,7.674-0.013,10.607
			c5.272,5.286,12.28,8.197,19.732,8.198c0.001,0,0.001,0,0.001,0c7.452,0,14.461-2.912,19.735-8.197
			C312.034,240.02,312.028,235.271,309.095,232.345z"/>
	</g>
</g>
<g>
	<g>
		<path d="M260.196,256.465h-2.191v-12.898c0-4.142-3.357-7.5-7.5-7.5s-7.5,3.358-7.5,7.5v15.398
			c-0.001,6.892,5.537,12.5,12.345,12.5h4.846c4.143,0,7.5-3.358,7.5-7.5C267.696,259.823,264.339,256.465,260.196,256.465z"/>
	</g>
</g>
<g>
	<g>
		<path d="M281.791,280.108c-2.933-2.925-7.682-2.919-10.606,0.013c-4.86,4.873-11.315,7.556-18.174,7.556
			c-6.858-0.001-13.312-2.684-18.17-7.555c-2.926-2.934-7.675-2.939-10.606-0.014c-2.934,2.925-2.939,7.674-0.015,10.607
			c7.693,7.714,17.918,11.962,28.79,11.962c0,0,0.001,0,0.002,0c10.872,0,21.098-4.248,28.792-11.962
			C284.73,287.782,284.724,283.033,281.791,280.108z"/>
	</g>
</g>
<g>
	<g>
		<path d="M326.908,385.044h-9.837v-9.869c0-5.701-4.635-10.338-10.332-10.338h-14.671c-5.698,0-10.335,4.638-10.335,10.338v9.869
			h-9.835c-5.697,0-10.333,4.637-10.333,10.337v14.697c0,5.701,4.636,10.339,10.333,10.339h9.835v9.866
			c0,5.701,4.637,10.339,10.335,10.339h14.671c5.697,0,10.332-4.638,10.332-10.339v-9.866h9.837c5.697,0,10.333-4.638,10.333-10.339
			v-14.697C337.241,389.681,332.605,385.044,326.908,385.044z M322.241,405.418h-12.67c-4.143,0-7.5,3.358-7.5,7.5v12.705h-5.338
			v-12.705c0-4.142-3.357-7.5-7.5-7.5h-12.668v-5.374h12.668c4.143,0,7.5-3.358,7.5-7.5v-12.707h5.338v12.707
			c0,4.142,3.357,7.5,7.5,7.5h12.67V405.418z"/>
	</g>
</g>
<g>
</g>
<g>
</g>
<g>
</g>
<g>
</g>
<g>
</g>
<g>
</g>
<g>
</g>
<g>
</g>
<g>
</g>
<g>
</g>
<g>
</g>
<g>
</g>
<g>
</g>
<g>
</g>
<g>
</g>
</svg>
